<?xml version="1.0" standalone="no"?><!DOCTYPE svg PUBLIC "-//W3C//DTD SVG 1.1//EN" "http://www.w3.org/Graphics/SVG/1.1/DTD/svg11.dtd"><svg t="1593403886388" class="icon" viewBox="0 0 1024 1024" version="1.1" xmlns="http://www.w3.org/2000/svg" p-id="6085" xmlns:xlink="http://www.w3.org/1999/xlink" width="64" height="64"><defs><style type="text/css"></style></defs><path d="M85.333333 85.333333m85.333334 0l213.333333 0q85.333333 0 85.333333 85.333334l0 213.333333q0 85.333333-85.333333 85.333333l-213.333333 0q-85.333333 0-85.333334-85.333333l0-213.333333q0-85.333333 85.333334-85.333334Z" p-id="6086" fill="#d81e06"></path><path d="M85.333333 554.666667m85.333334 0l213.333333 0q85.333333 0 85.333333 85.333333l0 213.333333q0 85.333333-85.333333 85.333334l-213.333333 0q-85.333333 0-85.333334-85.333334l0-213.333333q0-85.333333 85.333334-85.333333Z" p-id="6087" fill="#d81e06"></path><path d="M554.666667 85.333333m85.333333 0l213.333333 0q85.333333 0 85.333334 85.333334l0 213.333333q0 85.333333-85.333334 85.333333l-213.333333 0q-85.333333 0-85.333333-85.333333l0-213.333333q0-85.333333 85.333333-85.333334Z" p-id="6088" fill="#d81e06"></path><path d="M512 725.333333c0-117.76 95.658667-213.333333 213.333333-213.333333 117.76 0 213.333333 95.658667 213.333334 213.333333 0 117.76-95.658667 213.333333-213.333334 213.333334-117.76 0-213.333333-95.658667-213.333333-213.333334z m85.333333 0c0 70.570667 57.386667 128 128 128 70.570667 0 128-57.386667 128-128 0-70.570667-57.386667-128-128-128-70.570667 0-128 57.386667-128 128z" p-id="6089" fill="#d81e06"></path><path d="M823.168 883.498667l85.333333 85.333333a42.666667 42.666667 0 0 0 60.330667-60.330667l-85.333333-85.333333a42.666667 42.666667 0 0 0-60.330667 60.330667z" p-id="6090" fill="#d81e06"></path></svg>