<?xml version="1.0" standalone="no"?><!DOCTYPE svg PUBLIC "-//W3C//DTD SVG 1.1//EN" "http://www.w3.org/Graphics/SVG/1.1/DTD/svg11.dtd"><svg t="1593403801184" class="icon" viewBox="0 0 1024 1024" version="1.1" xmlns="http://www.w3.org/2000/svg" p-id="2707" xmlns:xlink="http://www.w3.org/1999/xlink" width="64" height="64"><defs><style type="text/css"></style></defs><path d="M890.080927 1023.985081H134.09512a95.481523 95.481523 0 0 1-70.254871-29.024213A76.222466 76.222466 0 0 1 42.953666 937.183697l50.995814-591.063177a91.683962 91.683962 0 0 1 89.785182-83.546332H235.544238C259.957127 95.481523 360.049974 0 511.952396 0s251.995269 95.481523 276.408158 262.574188h51.809577a91.141454 91.141454 0 0 1 90.056436 83.546332l5.696341 65.101038 45.028218 525.962139a75.951211 75.951211 0 0 1-20.615329 57.777171 95.752777 95.752777 0 0 1-70.25487 29.024213zM184.005916 302.177319a51.809576 51.809576 0 0 0-50.724559 47.469507L82.556798 940.438749a36.619334 36.619334 0 0 0 10.307664 27.125432 56.149646 56.149646 0 0 0 41.230658 16.27526h755.985807a56.149646 56.149646 0 0 0 41.230657-16.546514 36.34808 36.34808 0 0 0 10.307665-27.125433L890.623435 347.205537a51.538322 51.538322 0 0 0-50.724559-45.299472h-86.53013l-1.89878-17.631531c-17.902786-157.870018-102.80539-244.128893-239.51757-244.128894s-221.614784 87.072639-239.246315 244.128894l-1.898781 17.631531z m525.148375 196.930641a85.445113 85.445113 0 1 1 85.445113-85.445113 85.445113 85.445113 0 0 1-85.445113 85.445113z m0-131.287094a45.841981 45.841981 0 1 0 45.841981 45.841981 45.841981 45.841981 0 0 0-45.841981-46.113235zM314.207992 499.10796a85.445113 85.445113 0 1 1 85.445113-85.445113A85.445113 85.445113 0 0 1 314.207992 499.10796z m0-131.287094a45.841981 45.841981 0 1 0 45.841982 45.841981 45.841981 45.841981 0 0 0-45.841982-46.113235z m412.306576-65.643547H296.576461l2.712543-22.242854c21.700346-177.129075 127.489533-214.290918 212.663392-214.290918s189.878028 37.161843 212.663392 214.290918zM341.333425 262.574188h340.966688c-18.716549-105.789187-74.59494-157.327509-170.076463-157.327509s-151.359914 51.538322-170.890225 157.327509z" p-id="2708" fill="#d81e06"></path></svg>