<?xml version="1.0" standalone="no"?><!DOCTYPE svg PUBLIC "-//W3C//DTD SVG 1.1//EN" "http://www.w3.org/Graphics/SVG/1.1/DTD/svg11.dtd"><svg t="1594197450313" class="icon" viewBox="0 0 1024 1024" version="1.1" xmlns="http://www.w3.org/2000/svg" p-id="7821" xmlns:xlink="http://www.w3.org/1999/xlink" width="64" height="64"><defs><style type="text/css"></style></defs><path d="M887.824039 934.636716c-4.15667 15.671934-19.986193 25.195845-35.45756 21.474081-15.500019-3.781116-25.124214-19.452028-21.013593-35.471886l35.113729-140.074246L866.466616 487.747643c0-11.935843-6.206352-19.439748-14.102183-22.51376-3.100618-1.355881-7.575536-2.02103-11.342326-2.02103-4.15667 0-8.283664 0.665149-11.747555 2.02103-7.532557 3.074012-13.074783 9.915837-13.738909 21.503756l0 0.318248 0 0.692778 0 32.03767c0 16.018835-13.421684 28.977985-29.254278 28.977985s-28.588105-12.95915-28.588105-28.977985c0-24.87862 0-50.120514 0-75.318406 0-11.949146-6.869455-19.439748-14.461363-22.873963-3.449565-1.357927-7.563256-2.02103-10.996448-2.02103-4.820796 0-8.948813 0.663102-12.036128 2.02103-7.591909 3.433192-13.437034 10.232039-14.144138 21.50171l0 1.372254 0 75.318406c0 16.018835-13.074783 28.977985-29.252231 28.977985-15.832594 0-28.559453-12.95915-28.559453-28.977985 0-28.647457 0-57.625442 0-86.590124 0-12.612249-6.206352-20.116153-13.769608-22.832008-4.125971-1.00898-8.253988-1.717108-11.70253-1.717108-4.489244 0-8.240685 0.707105-12.04943 1.717108-7.590885 2.714831-13.754259 10.218736-13.754259 21.462824l0 0.691755 0 0.678452 0 86.590124c0 16.019859-13.434987 28.979008-29.253254 28.979008-15.859199 0-29.266557-12.95915-29.266557-28.979008 0-93.055372 0-185.445596 0-278.819217 0-11.618619-5.831822-19.439748-14.116509-23.220864-3.460822-1.011027-6.881734-1.675152-11.355629-1.675152-3.811816 0-8.283664 0.664126-11.358699 1.675152-7.562233 3.781116-14.488992 11.602246-14.488992 23.220864 0 153.72515 0 307.435974 0 461.523375 0 15.672958-12.353352 28.299533-28.892027 28.299533-15.817244 0-29.252231-12.626575-29.252231-28.299533L428.983773 576.719001l0-0.692778 0-0.665149c-0.354064-11.271718-6.207375-18.428721-14.101159-22.165836-3.100618-0.693802-6.91141-1.372254-11.386328-1.372254-3.77293 0-8.247848 0.678452-11.350512 1.372254-7.576559 3.737114-13.744026 11.588943-13.744026 23.523763l0 143.838989c0 56.93164 1.694595 59.313897 31.646767 97.81784l8.256034 9.899464 63.339584 82.143858c10.334369 12.945847 7.216355 30.668487-4.834098 40.553625-13.074783 9.567913-31.302937 6.840802-41.274032-5.802146l-63.34163-81.782631-8.592702-10.564613c-40.993646-52.153824-43.742247-55.920614-43.742247-132.265396L319.859423 576.719001c0-39.890522 22.030759-65.13037 50.611701-76.372412 10.326183-4.431939 21.675672-6.149047 33.025161-6.149047 8.284687 0 17.23964 1.051959 25.487487 3.781116L428.983773 240.96712c0-39.543621 22.381753-65.129346 50.610678-76.025511 10.996448-4.431939 22.701025-6.148024 33.380248-6.148024 11.356652 0 22.384823 1.717108 33.034371 6.148024 28.575826 10.896164 50.958602 36.482913 50.958602 76.025511l0 113.159246c7.894807-2.050706 16.494673-3.420913 25.804712-3.420913 11.025101 0 22.036899 1.718131 33.063023 6.147 10.334369 4.431939 19.944238 10.881838 28.200272 19.092847 4.819772-3.420913 9.292644-5.802146 14.488992-7.503904 10.635221-4.430916 21.676695-6.492878 33.712823-6.492878 10.649548 0 21.676695 2.064009 33.033347 6.492878 18.918885 7.503904 35.45756 22.470781 43.712571 42.615587 10.334369-3.765767 21.705348-5.78475 32.039717-5.78475 10.997472 0 22.686698 2.711761 33.364899 6.449899 28.242228 11.243065 50.279127 37.175691 50.279127 76.026534l0 296.556183c0 2.064009-0.361227 4.428869-0.722454 6.132674L887.824039 934.636716 887.824039 934.636716zM144.998907 322.43355 144.998907 322.43355c-11.350512 11.907191-29.92352 11.907191-41.274032 0-11.386328-10.923794-11.386328-29.006637 0-40.596604l95.341439-94.730525c12.022825-11.270694 30.632671-11.270694 41.276079 0l96.049566 94.730525c11.024078 11.589966 11.024078 29.671787 0 40.596604-10.997472 11.907191-29.960359 11.907191-41.309848 0l-46.103014-45.343721 0 257.358439c0 15.672958-13.08297 28.977985-28.942169 28.977985-15.82543 0-29.253254-13.302981-29.253254-28.977985L190.783673 277.088806 144.998907 322.43355 144.998907 322.43355z" p-id="7822" fill="#707070"></path></svg>