<?xml version="1.0" standalone="no"?><!DOCTYPE svg PUBLIC "-//W3C//DTD SVG 1.1//EN" "http://www.w3.org/Graphics/SVG/1.1/DTD/svg11.dtd"><svg t="1594476944345" class="icon" viewBox="0 0 1024 1024" version="1.1" xmlns="http://www.w3.org/2000/svg" p-id="2802" xmlns:xlink="http://www.w3.org/1999/xlink" width="32" height="32"><defs><style type="text/css"></style></defs><path d="M608.992 672q-36.992 0-68.992-4-12.992-0.992-20.992-11.488t-6.496-23.488 11.488-21.504 23.008-6.496q44 3.008 88.992 2.016t84.512-12.992 49.504-32q6.016-12 18.496-16.512t24.512 0.992 16.512 18.016-1.504 24.512q-40 83.008-219.008 83.008zM896 640q-12.992 0-22.496-9.504t-9.504-22.496l0-110.016-43.008-16q-20.992-7.008-20.992-30.016 0-119.008-84.512-203.488t-203.488-84.512-203.488 84.512-84.512 203.488q0 8-3.488 15.008t-9.504 11.008l-19.008 14.016 0 116q0 12.992-9.504 22.496t-22.496 9.504-22.496-9.504-9.504-22.496l0-132.992q0-4.992 1.504-10.016t4.512-8.992 7.008-7.008l19.008-12.992q7.008-140 108.992-238.016t243.008-98.016q92 0 170.496 44t126.496 119.488 54.016 166.496l44 15.008q20.992 8 20.992 30.016l0 132.992q0 12.992-9.504 22.496t-22.496 9.504zM640 784l0-10.016q48-36.992 64-72.992-19.008 3.008-88 3.008l-18.016 0q-11.008 0-18.016 0.512t-15.008 0-14.016-0.512-11.008-0.992q-26.016-3.008-43.008-24.992t-14.016-48.992q3.008-26.016 24-42.496t47.008-13.504q55.008 4.992 106.016 0.512t75.008-14.496q0.992-20.992 0.992-84 0-50.016-15.008-91.008t-43.008-69.504-68.512-44-89.504-16.512l-20 0q-40 0.992-73.504 11.008t-59.488 28.992-44 45.504-27.008 60.992-8.992 75.488q0 35.008 0.512 57.504t6.016 61.504 15.008 67.008 28.992 59.488 46.496 52.512l0 10.016q-100 15.008-163.008 52.992t-63.008 88.992q0 22.016 20.992 31.008 6.016 3.008 12 3.008l628 0q8 0 17.504-4.992t15.488-12.992 6.016-16q0-51.008-60-88.992t-158.016-52.992z" p-id="2803" fill="#515151"></path></svg>