<?xml version="1.0" standalone="no"?><!DOCTYPE svg PUBLIC "-//W3C//DTD SVG 1.1//EN" "http://www.w3.org/Graphics/SVG/1.1/DTD/svg11.dtd"><svg t="1594476995076" class="icon" viewBox="0 0 1024 1024" version="1.1" xmlns="http://www.w3.org/2000/svg" p-id="3812" xmlns:xlink="http://www.w3.org/1999/xlink" width="32" height="32"><defs><style type="text/css"></style></defs><path d="M49.3 361.1c-1.3 0-2.7-0.2-4-0.6-8-2.2-12.6-10.5-10.4-18.5l47.2-168.9c7.2-27.3 32.2-46.6 60.7-46.6h77.4c8.3 0 15 6.7 15 15s-6.7 15-15 15h-77.4c-14.9 0-27.9 10-31.7 24.4L63.8 350.1c-1.9 6.7-7.9 11-14.5 11z" p-id="3813" fill="#707070"></path><path d="M801.3 543c-56.2 0-108.8-24.8-144.5-67.3-35.7 42.5-88.3 67.3-144.5 67.3s-108.8-24.8-144.5-67.3c-35.7 42.5-88.3 67.3-144.5 67.3-104 0-188.7-84.6-188.7-188.7 0-8.3 6.7-15 15-15s15 6.7 15 15c0 87.5 71.2 158.7 158.7 158.7 53.1 0 102.5-26.4 132-70.6l12.5-18.6 12.5 18.6c29.6 44.2 78.9 70.6 132 70.6 53.1 0 102.5-26.4 132-70.6l12.5-18.6 12.5 18.6c29.6 44.2 78.9 70.6 132 70.6 87.5 0 158.7-71.2 158.7-158.7 0-8.3 6.7-15 15-15s15 6.7 15 15c0 104-84.6 188.7-188.7 188.7z" p-id="3814" fill="#707070"></path><path d="M861.9 898.4H162.8c-34.6 0-62.8-28.2-62.8-62.8V490c0-8.3 6.7-15 15-15s15 6.7 15 15v345.6c0 18.1 14.7 32.8 32.8 32.8h699.1c18.1 0 32.8-14.7 32.8-32.8V489.9c0-8.3 6.7-15 15-15s15 6.7 15 15v345.6c0 34.7-28.2 62.9-62.8 62.9zM974.5 361.6c-6.6 0-12.6-4.4-14.5-11l-46.3-169.4c-3.8-14.5-16.9-24.6-31.8-24.6H298.8c-8.3 0-15-6.7-15-15s6.7-15 15-15H882c28.5 0 53.4 19.2 60.7 46.8L989 342.6c2.2 8-2.5 16.2-10.5 18.4-1.3 0.4-2.7 0.6-4 0.6z" p-id="3815" fill="#707070"></path><path d="M359.7 827.6c-8.3 0-15-6.7-15-15V549.3c0-8.3 6.7-15 15-15s15 6.7 15 15v263.3c0 8.3-6.7 15-15 15zM665.9 272.3H358.5c-8.3 0-15-6.7-15-15s6.7-15 15-15h307.4c8.3 0 15 6.7 15 15-0.1 8.3-6.8 15-15 15z" p-id="3816" fill="#707070"></path></svg>