<?xml version="1.0" standalone="no"?><!DOCTYPE svg PUBLIC "-//W3C//DTD SVG 1.1//EN" "http://www.w3.org/Graphics/SVG/1.1/DTD/svg11.dtd"><svg t="1594369575807" class="icon" viewBox="0 0 1024 1024" version="1.1" xmlns="http://www.w3.org/2000/svg" p-id="4604" width="32" height="32" xmlns:xlink="http://www.w3.org/1999/xlink"><defs><style type="text/css"></style></defs><path d="M277.8 932c-12.3 0-24.5-3.9-35-11.5-18.5-13.4-27.6-35.8-23.7-58.3l37.1-216.3c1.5-8.4-1.4-17.1-7.5-23L91.5 469.6c-16.4-16-22.2-39.4-15.1-61.1 7.1-21.7 25.5-37.3 48.1-40.6l217.2-31.6c8.5-1.2 15.8-6.6 19.6-14.2l97.1-196.8C468.6 104.7 489.1 92 512 92s43.4 12.7 53.5 33.2L662.6 322c3.8 7.7 11.1 13 19.6 14.2l217.2 31.6c22.6 3.3 41.1 18.8 48.1 40.6 7.1 21.7 1.3 45.2-15.1 61.1L775.3 622.8c-6.1 6-8.9 14.6-7.5 23l7 40.6c1.6 9.1-4.6 17.8-13.7 19.4-9.1 1.6-17.8-4.6-19.4-13.7l-7-40.6c-3.3-19.3 3.1-39.1 17.1-52.8L909 445.5c7.3-7.1 9.7-17 6.6-26.7-3.1-9.6-11-16.3-21-17.7l-217.2-31.6c-19.4-2.8-36.2-15-44.9-32.6l-97.1-196.8c-4.5-9.1-13.2-14.5-23.3-14.5-10.1 0-18.9 5.4-23.3 14.5L391.5 337c-8.7 17.6-25.5 29.8-44.9 32.6l-217.2 31.6c-10 1.5-17.9 8.1-21 17.7-3.1 9.6-0.7 19.6 6.6 26.7l157.2 153.2c14.1 13.7 20.5 33.4 17.1 52.8L252.2 868c-1.7 10 2.2 19.5 10.4 25.5s18.5 6.7 27.4 2l194.3-102.1c17.4-9.1 38.1-9.1 55.5 0L734 895.3c9 4.7 19.2 4 27.4-2s12.1-15.5 10.4-25.5l-6.3-36.5c-1.6-9.1 4.6-17.8 13.7-19.4 9.2-1.6 17.8 4.6 19.4 13.7l6.3 36.5c3.9 22.5-5.2 44.9-23.7 58.3-18.5 13.4-42.6 15.2-62.8 4.5l-194.3-102c-7.6-4-16.6-4-24.2 0L305.6 925.1c-8.8 4.6-18.3 6.9-27.8 6.9z" p-id="4605"></path></svg>